<svg width="900" height="420" viewBox="0 0 900 420" fill="none" xmlns="http://www.w3.org/2000/svg">
  <defs>
    <linearGradient id="bg" x1="0" y1="0" x2="900" y2="420" gradientUnits="userSpaceOnUse">
      <stop stop-color="#0F172A"/>
      <stop offset="1" stop-color="#111827"/>
    </linearGradient>
  </defs>
  <rect x="1" y="1" width="898" height="418" rx="20" fill="url(#bg)" stroke="#1E293B" stroke-width="2"/>
  <rect x="40" y="36" width="820" height="52" rx="12" fill="#0B1220" stroke="#243146"/>
  <rect x="58" y="50" width="220" height="24" rx="8" fill="#1F2937"/>
  <rect x="700" y="42" width="140" height="40" rx="20" fill="#2563EB"/>
  <text x="770" y="67" text-anchor="middle" fill="#E5F0FF" font-family="Arial, sans-serif" font-size="20" font-weight="700">Chrome에 추가</text>
  <rect x="40" y="112" width="820" height="268" rx="16" fill="#0B1220" stroke="#243146"/>
  <rect x="72" y="154" width="360" height="180" rx="12" fill="#111827" stroke="#374151"/>
  <rect x="450" y="154" width="380" height="180" rx="12" fill="#111827" stroke="#374151"/>
  <text x="252" y="252" text-anchor="middle" fill="#9CA3AF" font-family="Arial, sans-serif" font-size="22" font-weight="600">Chrome Web Store 미리보기</text>
  <text x="640" y="252" text-anchor="middle" fill="#9CA3AF" font-family="Arial, sans-serif" font-size="22" font-weight="600">UJAX IDE 미리보기</text>
  <path d="M640 120L780 62" stroke="#22C55E" stroke-width="5" stroke-linecap="round"/>
  <path d="M768 56L780 62L773 74" stroke="#22C55E" stroke-width="5" stroke-linecap="round" stroke-linejoin="round"/>
  <rect x="520" y="96" width="130" height="34" rx="17" fill="#052E1A" stroke="#16A34A"/>
  <text x="585" y="118" text-anchor="middle" fill="#BBF7D0" font-family="Arial, sans-serif" font-size="15" font-weight="700">1단계 클릭</text>
</svg>
